<svg width="16" height="16" viewBox="0 0 16 16" fill="none" xmlns="http://www.w3.org/2000/svg">
<path fill-rule="evenodd" clip-rule="evenodd" d="M15.2857 7.92969C15.2857 8.48197 14.838 8.92969 14.2857 8.92969H1.5C0.947715 8.92969 0.5 8.48197 0.5 7.92969C0.5 7.3774 0.947716 6.92969 1.5 6.92969H14.2857C14.838 6.92969 15.2857 7.3774 15.2857 7.92969Z" fill="#36354C"/>
<path fill-rule="evenodd" clip-rule="evenodd" d="M7.85693 15.2857C7.30465 15.2857 6.85693 14.838 6.85693 14.2857L6.85693 1.5C6.85693 0.947715 7.30465 0.5 7.85693 0.5C8.40922 0.5 8.85693 0.947716 8.85693 1.5L8.85693 14.2857C8.85693 14.838 8.40922 15.2857 7.85693 15.2857Z" fill="#36354C"/>
</svg>